<svg width="61" height="48" viewBox="0 0 61 48" fill="none" xmlns="http://www.w3.org/2000/svg">
<path d="M37.7889 14.1567C37.1807 11.1753 34.843 8.81978 31.8734 8.17899C32.0188 7.2 32.3985 5.84129 33.3923 4.79407C34.4722 3.65488 36.1098 3.07639 38.2606 3.07639V0C35.2138 0 32.8168 0.910754 31.1318 2.70853C30.7936 3.06749 30.5058 3.44722 30.2537 3.83288C30.0045 3.44722 29.7137 3.06749 29.3755 2.70853C27.6905 0.910754 25.2934 0 22.2467 0V3.07639C24.3975 3.07639 26.0351 3.65488 27.115 4.79407C28.1058 5.84129 28.4885 7.2 28.6339 8.17899C25.6643 8.81978 23.3266 11.1753 22.7184 14.1567H0V15.6964C0 22.5404 4.34907 28.3876 10.4247 30.6185C11.466 31.0042 12.5577 31.2801 13.685 31.4403C14.4089 31.5441 15.1476 31.5946 15.8952 31.5946C16.2245 31.5946 16.5478 31.5857 16.8653 31.5649C17.9155 31.5026 18.936 31.3335 19.9268 31.0784H19.9328C20.9384 30.8114 21.9026 30.4524 22.8252 30.0074C23.825 29.5209 24.7743 28.9305 25.6465 28.2482C26.667 27.4591 27.5837 26.5394 28.3847 25.5248C29.1174 24.6022 29.7434 23.5906 30.2566 22.5197C30.7698 23.5906 31.3958 24.6022 32.1286 25.5248C32.9295 26.5394 33.8462 27.4591 34.8668 28.2482C35.7389 28.9305 36.6883 29.5209 37.688 30.0074C38.6047 30.4524 39.5748 30.8114 40.5805 31.0784C41.5654 31.3335 42.5859 31.5026 43.6361 31.5649C43.9595 31.5857 44.2858 31.5946 44.6151 31.5946C45.3627 31.5946 46.1014 31.5441 46.8252 31.4403C47.9525 31.2801 49.0443 31.0042 50.0855 30.6185C56.1612 28.3876 60.5103 22.5434 60.5103 15.6964V14.1567H37.7948H37.7889ZM26.842 22.3506C24.5904 26.041 20.5291 28.5152 15.8952 28.5152C9.34784 28.5152 3.93375 23.5817 3.16836 17.2361H28.622C28.4025 19.0932 27.7765 20.8257 26.842 22.3535V22.3506ZM28.714 14.1567H25.9075C26.5424 12.3679 28.2482 11.0803 30.2537 11.0803C32.2591 11.0803 33.9619 12.3679 34.5998 14.1567H28.7169H28.714ZM44.6091 28.5152C39.9753 28.5152 35.914 26.044 33.6623 22.3506C32.7278 20.8227 32.1048 19.0902 31.8823 17.2331H57.336C56.5706 23.5817 51.1565 28.5122 44.6091 28.5122V28.5152Z" fill="#AFC083"/>
<path d="M21.2262 33.8966C20.1968 34.2051 19.1288 34.4187 18.0371 34.5433C20.3807 38.9487 25.0057 41.8441 30.2507 41.8441C35.4957 41.8441 40.0702 38.9072 42.4376 34.5433C41.3459 34.4217 40.2779 34.1992 39.2485 33.8906C37.3053 36.8395 33.9471 38.7678 30.2507 38.7678C26.5543 38.7678 23.1605 36.8602 21.2262 33.8966Z" fill="#EFF2E8"/>
<path d="M30.2509 44.9207C23.3505 44.9207 17.2897 40.6843 14.6879 34.6235C13.4924 34.5523 12.3295 34.3684 11.2021 34.0747C13.7979 42.1647 21.4429 47.9971 30.2509 47.9971C39.0588 47.9971 46.7038 42.1617 49.2996 34.0747C48.1722 34.3684 47.0064 34.5523 45.8138 34.6235C43.2091 40.6843 37.1542 44.9207 30.2509 44.9207Z" fill="#EFF2E8"/>
<path d="M24.208 32.7487C25.6172 34.5375 27.8036 35.6916 30.254 35.6916C32.7044 35.6916 34.8879 34.5375 36.3 32.7487C35.3625 32.2859 34.4636 31.7548 33.6241 31.1497C32.7845 32.0515 31.583 32.6152 30.254 32.6152C28.9249 32.6152 27.7264 32.0515 26.8839 31.1497C26.0444 31.7548 25.1455 32.2888 24.208 32.7487Z" fill="#EFF2E8"/>
<path d="M30.2506 30.0015C31.2321 30.0015 32.0276 29.2059 32.0276 28.2245C32.0276 27.2431 31.2321 26.4475 30.2506 26.4475C29.2692 26.4475 28.4736 27.2431 28.4736 28.2245C28.4736 29.2059 29.2692 30.0015 30.2506 30.0015Z" fill="#EFF2E8"/>
</svg>
